<mxfile host="65bd71144e">
    <diagram id="sLfnsx0PsjXrV4OSWLCP" name="Page-1">
        <mxGraphModel dx="889" dy="1435" grid="1" gridSize="10" guides="1" tooltips="1" connect="1" arrows="1" fold="1" page="0" pageScale="1" pageWidth="827" pageHeight="1169" math="0" shadow="0">
            <root>
                <mxCell id="0"/>
                <mxCell id="1" parent="0"/>
                <mxCell id="41" style="edgeStyle=none;html=1;entryX=0;entryY=0.5;entryDx=0;entryDy=0;exitX=1;exitY=0.5;exitDx=0;exitDy=0;" edge="1" parent="1" source="9" target="10">
                    <mxGeometry relative="1" as="geometry"/>
                </mxCell>
                <mxCell id="42" style="edgeStyle=none;html=1;entryX=0;entryY=0.5;entryDx=0;entryDy=0;exitX=1;exitY=0.5;exitDx=0;exitDy=0;" edge="1" parent="1" source="9" target="12">
                    <mxGeometry relative="1" as="geometry">
                        <mxPoint x="360" y="-300" as="sourcePoint"/>
                    </mxGeometry>
                </mxCell>
                <mxCell id="43" style="edgeStyle=none;html=1;exitX=1;exitY=0.5;exitDx=0;exitDy=0;entryX=0;entryY=0.5;entryDx=0;entryDy=0;" edge="1" parent="1" source="9" target="11">
                    <mxGeometry relative="1" as="geometry"/>
                </mxCell>
                <mxCell id="9" value="/admin" style="rounded=0;whiteSpace=wrap;html=1;" vertex="1" parent="1">
                    <mxGeometry x="200" y="-400" width="120" height="60" as="geometry"/>
                </mxCell>
                <mxCell id="59" style="edgeStyle=none;html=1;entryX=0;entryY=0.5;entryDx=0;entryDy=0;exitX=0.5;exitY=1;exitDx=0;exitDy=0;" edge="1" parent="1" source="10" target="31">
                    <mxGeometry relative="1" as="geometry">
                        <Array as="points">
                            <mxPoint x="500" y="-280"/>
                        </Array>
                    </mxGeometry>
                </mxCell>
                <mxCell id="10" value="/user" style="rounded=0;whiteSpace=wrap;html=1;" vertex="1" parent="1">
                    <mxGeometry x="440" y="-400" width="120" height="60" as="geometry"/>
                </mxCell>
                <mxCell id="44" style="edgeStyle=none;html=1;entryX=0;entryY=0.5;entryDx=0;entryDy=0;exitX=0.5;exitY=1;exitDx=0;exitDy=0;" edge="1" parent="1" source="11" target="30">
                    <mxGeometry relative="1" as="geometry">
                        <Array as="points">
                            <mxPoint x="500" y="80"/>
                        </Array>
                    </mxGeometry>
                </mxCell>
                <mxCell id="46" style="edgeStyle=none;html=1;exitX=0.5;exitY=1;exitDx=0;exitDy=0;entryX=0;entryY=0.5;entryDx=0;entryDy=0;" edge="1" parent="1" source="11" target="32">
                    <mxGeometry relative="1" as="geometry">
                        <Array as="points">
                            <mxPoint x="500" y="-20"/>
                        </Array>
                    </mxGeometry>
                </mxCell>
                <mxCell id="47" style="edgeStyle=none;html=1;exitX=0.5;exitY=1;exitDx=0;exitDy=0;entryX=0;entryY=0.5;entryDx=0;entryDy=0;" edge="1" parent="1" source="11" target="33">
                    <mxGeometry relative="1" as="geometry">
                        <Array as="points">
                            <mxPoint x="500" y="-120"/>
                        </Array>
                    </mxGeometry>
                </mxCell>
                <mxCell id="66" style="edgeStyle=none;html=1;exitX=0.5;exitY=1;exitDx=0;exitDy=0;entryX=0;entryY=0.5;entryDx=0;entryDy=0;" edge="1" parent="1" source="11" target="65">
                    <mxGeometry relative="1" as="geometry">
                        <mxPoint x="590" y="190" as="targetPoint"/>
                        <Array as="points">
                            <mxPoint x="500" y="180"/>
                        </Array>
                    </mxGeometry>
                </mxCell>
                <mxCell id="11" value="/settings" style="rounded=0;whiteSpace=wrap;html=1;" vertex="1" parent="1">
                    <mxGeometry x="440" y="-230" width="120" height="60" as="geometry"/>
                </mxCell>
                <mxCell id="12" value="/auth" style="rounded=0;whiteSpace=wrap;html=1;" vertex="1" parent="1">
                    <mxGeometry x="440" y="-520" width="120" height="60" as="geometry"/>
                </mxCell>
                <mxCell id="30" value="/personalData" style="rounded=0;whiteSpace=wrap;html=1;" vertex="1" parent="1">
                    <mxGeometry x="600" y="50" width="120" height="60" as="geometry"/>
                </mxCell>
                <mxCell id="31" value="/sessions" style="rounded=0;whiteSpace=wrap;html=1;" vertex="1" parent="1">
                    <mxGeometry x="600" y="-310" width="120" height="60" as="geometry"/>
                </mxCell>
                <mxCell id="32" value="/apperance" style="rounded=0;whiteSpace=wrap;html=1;" vertex="1" parent="1">
                    <mxGeometry x="600" y="-50" width="120" height="60" as="geometry"/>
                </mxCell>
                <mxCell id="33" value="/notifications" style="rounded=0;whiteSpace=wrap;html=1;" vertex="1" parent="1">
                    <mxGeometry x="600" y="-150" width="120" height="60" as="geometry"/>
                </mxCell>
                <mxCell id="49" value="Login" style="text;html=1;strokeColor=none;fillColor=none;align=center;verticalAlign=middle;whiteSpace=wrap;rounded=0;" vertex="1" parent="1">
                    <mxGeometry x="610" y="-510" width="60" height="30" as="geometry"/>
                </mxCell>
                <mxCell id="50" value="Logout" style="text;html=1;strokeColor=none;fillColor=none;align=center;verticalAlign=middle;whiteSpace=wrap;rounded=0;" vertex="1" parent="1">
                    <mxGeometry x="690" y="-510" width="60" height="30" as="geometry"/>
                </mxCell>
                <mxCell id="51" value="Register" style="text;html=1;strokeColor=none;fillColor=none;align=center;verticalAlign=middle;whiteSpace=wrap;rounded=0;" vertex="1" parent="1">
                    <mxGeometry x="770" y="-510" width="60" height="30" as="geometry"/>
                </mxCell>
                <mxCell id="52" value="Forget Password" style="text;html=1;strokeColor=none;fillColor=none;align=center;verticalAlign=middle;whiteSpace=wrap;rounded=0;" vertex="1" parent="1">
                    <mxGeometry x="930" y="-510" width="60" height="30" as="geometry"/>
                </mxCell>
                <mxCell id="54" value="Delete Account" style="text;html=1;strokeColor=none;fillColor=none;align=center;verticalAlign=middle;whiteSpace=wrap;rounded=0;" vertex="1" parent="1">
                    <mxGeometry x="600" y="-385" width="60" height="30" as="geometry"/>
                </mxCell>
                <mxCell id="56" value="Upgrade Tier" style="text;html=1;strokeColor=none;fillColor=none;align=center;verticalAlign=middle;whiteSpace=wrap;rounded=0;" vertex="1" parent="1">
                    <mxGeometry x="770" y="-385" width="60" height="30" as="geometry"/>
                </mxCell>
                <mxCell id="57" value="Downgrade&lt;br&gt;Tier" style="text;html=1;strokeColor=none;fillColor=none;align=center;verticalAlign=middle;whiteSpace=wrap;rounded=0;" vertex="1" parent="1">
                    <mxGeometry x="860" y="-385" width="60" height="30" as="geometry"/>
                </mxCell>
                <mxCell id="58" value="Get Tier" style="text;html=1;strokeColor=none;fillColor=none;align=center;verticalAlign=middle;whiteSpace=wrap;rounded=0;" vertex="1" parent="1">
                    <mxGeometry x="690" y="-385" width="60" height="30" as="geometry"/>
                </mxCell>
                <mxCell id="60" value="Set Session" style="text;html=1;strokeColor=none;fillColor=none;align=center;verticalAlign=middle;whiteSpace=wrap;rounded=0;" vertex="1" parent="1">
                    <mxGeometry x="740" y="-295" width="60" height="30" as="geometry"/>
                </mxCell>
                <mxCell id="61" value="Get Logged In Devices" style="text;html=1;strokeColor=none;fillColor=none;align=center;verticalAlign=middle;whiteSpace=wrap;rounded=0;" vertex="1" parent="1">
                    <mxGeometry x="820" y="-295" width="60" height="30" as="geometry"/>
                </mxCell>
                <mxCell id="62" value="Get Sessions" style="text;html=1;strokeColor=none;fillColor=none;align=center;verticalAlign=middle;whiteSpace=wrap;rounded=0;" vertex="1" parent="1">
                    <mxGeometry x="910" y="-295" width="60" height="30" as="geometry"/>
                </mxCell>
                <mxCell id="63" value="Deactivate" style="text;html=1;strokeColor=none;fillColor=none;align=center;verticalAlign=middle;whiteSpace=wrap;rounded=0;" vertex="1" parent="1">
                    <mxGeometry x="1020" y="-510" width="60" height="30" as="geometry"/>
                </mxCell>
                <mxCell id="64" value="Activate" style="text;html=1;strokeColor=none;fillColor=none;align=center;verticalAlign=middle;whiteSpace=wrap;rounded=0;" vertex="1" parent="1">
                    <mxGeometry x="1110" y="-510" width="60" height="30" as="geometry"/>
                </mxCell>
                <mxCell id="65" value="/application" style="rounded=0;whiteSpace=wrap;html=1;" vertex="1" parent="1">
                    <mxGeometry x="600" y="150" width="120" height="60" as="geometry"/>
                </mxCell>
                <mxCell id="67" value="Activate Notifications for Device" style="text;html=1;strokeColor=none;fillColor=none;align=center;verticalAlign=middle;whiteSpace=wrap;rounded=0;" vertex="1" parent="1">
                    <mxGeometry x="750" y="-135" width="60" height="30" as="geometry"/>
                </mxCell>
                <mxCell id="68" value="Deactive Notifications for Device" style="text;html=1;strokeColor=none;fillColor=none;align=center;verticalAlign=middle;whiteSpace=wrap;rounded=0;" vertex="1" parent="1">
                    <mxGeometry x="840" y="-135" width="60" height="30" as="geometry"/>
                </mxCell>
                <mxCell id="69" value="Get active note device" style="text;html=1;strokeColor=none;fillColor=none;align=center;verticalAlign=middle;whiteSpace=wrap;rounded=0;" vertex="1" parent="1">
                    <mxGeometry x="1070" y="-135" width="60" height="30" as="geometry"/>
                </mxCell>
                <mxCell id="70" value="get all settings" style="text;html=1;strokeColor=none;fillColor=none;align=center;verticalAlign=middle;whiteSpace=wrap;rounded=0;" vertex="1" parent="1">
                    <mxGeometry x="1140" y="-135" width="60" height="30" as="geometry"/>
                </mxCell>
                <mxCell id="71" value="Activate all" style="text;html=1;strokeColor=none;fillColor=none;align=center;verticalAlign=middle;whiteSpace=wrap;rounded=0;" vertex="1" parent="1">
                    <mxGeometry x="930" y="-135" width="60" height="30" as="geometry"/>
                </mxCell>
                <mxCell id="72" value="Disable all" style="text;html=1;strokeColor=none;fillColor=none;align=center;verticalAlign=middle;whiteSpace=wrap;rounded=0;" vertex="1" parent="1">
                    <mxGeometry x="1000" y="-135" width="60" height="30" as="geometry"/>
                </mxCell>
                <mxCell id="73" value="Refresh Token" style="text;html=1;strokeColor=none;fillColor=none;align=center;verticalAlign=middle;whiteSpace=wrap;rounded=0;" vertex="1" parent="1">
                    <mxGeometry x="850" y="-510" width="60" height="30" as="geometry"/>
                </mxCell>
                <mxCell id="74" value="Set Default Mode" style="text;html=1;strokeColor=none;fillColor=none;align=center;verticalAlign=middle;whiteSpace=wrap;rounded=0;" vertex="1" parent="1">
                    <mxGeometry x="750" y="-35" width="60" height="30" as="geometry"/>
                </mxCell>
                <mxCell id="75" value="Get Default Mode" style="text;html=1;strokeColor=none;fillColor=none;align=center;verticalAlign=middle;whiteSpace=wrap;rounded=0;" vertex="1" parent="1">
                    <mxGeometry x="840" y="-35" width="60" height="30" as="geometry"/>
                </mxCell>
                <mxCell id="76" value="Set Default Theme" style="text;html=1;strokeColor=none;fillColor=none;align=center;verticalAlign=middle;whiteSpace=wrap;rounded=0;" vertex="1" parent="1">
                    <mxGeometry x="930" y="-35" width="60" height="30" as="geometry"/>
                </mxCell>
                <mxCell id="77" value="Get Default Theme" style="text;html=1;strokeColor=none;fillColor=none;align=center;verticalAlign=middle;whiteSpace=wrap;rounded=0;" vertex="1" parent="1">
                    <mxGeometry x="1010" y="-35" width="60" height="30" as="geometry"/>
                </mxCell>
                <mxCell id="78" value="Update Username" style="text;html=1;strokeColor=none;fillColor=none;align=center;verticalAlign=middle;whiteSpace=wrap;rounded=0;" vertex="1" parent="1">
                    <mxGeometry x="740" y="65" width="60" height="30" as="geometry"/>
                </mxCell>
                <mxCell id="79" value="Update Name" style="text;html=1;strokeColor=none;fillColor=none;align=center;verticalAlign=middle;whiteSpace=wrap;rounded=0;" vertex="1" parent="1">
                    <mxGeometry x="840" y="65" width="60" height="30" as="geometry"/>
                </mxCell>
                <mxCell id="80" value="Update DisplayName" style="text;html=1;strokeColor=none;fillColor=none;align=center;verticalAlign=middle;whiteSpace=wrap;rounded=0;" vertex="1" parent="1">
                    <mxGeometry x="930" y="60" width="60" height="35" as="geometry"/>
                </mxCell>
                <mxCell id="81" value="Update Mail" style="text;html=1;strokeColor=none;fillColor=none;align=center;verticalAlign=middle;whiteSpace=wrap;rounded=0;" vertex="1" parent="1">
                    <mxGeometry x="1020" y="62.5" width="60" height="35" as="geometry"/>
                </mxCell>
                <mxCell id="101" style="edgeStyle=none;html=1;entryX=0;entryY=0.5;entryDx=0;entryDy=0;" edge="1" parent="1" source="82" target="100">
                    <mxGeometry relative="1" as="geometry">
                        <Array as="points">
                            <mxPoint x="1380" y="-270"/>
                        </Array>
                    </mxGeometry>
                </mxCell>
                <mxCell id="113" style="edgeStyle=none;html=1;exitX=0.5;exitY=1;exitDx=0;exitDy=0;entryX=0;entryY=0.5;entryDx=0;entryDy=0;" edge="1" parent="1" source="82" target="112">
                    <mxGeometry relative="1" as="geometry">
                        <Array as="points">
                            <mxPoint x="1380" y="-165"/>
                        </Array>
                    </mxGeometry>
                </mxCell>
                <mxCell id="82" value="/calendar" style="rounded=0;whiteSpace=wrap;html=1;" vertex="1" parent="1">
                    <mxGeometry x="1320" y="-400" width="120" height="60" as="geometry"/>
                </mxCell>
                <mxCell id="83" value="Create Calendar" style="text;html=1;strokeColor=none;fillColor=none;align=center;verticalAlign=middle;whiteSpace=wrap;rounded=0;" vertex="1" parent="1">
                    <mxGeometry x="1480" y="-385" width="60" height="30" as="geometry"/>
                </mxCell>
                <mxCell id="85" value="Delete Calendar" style="text;html=1;strokeColor=none;fillColor=none;align=center;verticalAlign=middle;whiteSpace=wrap;rounded=0;" vertex="1" parent="1">
                    <mxGeometry x="1550" y="-385" width="60" height="30" as="geometry"/>
                </mxCell>
                <mxCell id="86" value="Get Calendar" style="text;html=1;strokeColor=none;fillColor=none;align=center;verticalAlign=middle;whiteSpace=wrap;rounded=0;" vertex="1" parent="1">
                    <mxGeometry x="1620" y="-385" width="60" height="30" as="geometry"/>
                </mxCell>
                <mxCell id="87" value="Get All Calendar" style="text;html=1;strokeColor=none;fillColor=none;align=center;verticalAlign=middle;whiteSpace=wrap;rounded=0;" vertex="1" parent="1">
                    <mxGeometry x="1690" y="-385" width="60" height="30" as="geometry"/>
                </mxCell>
                <mxCell id="89" value="Set Name" style="text;html=1;strokeColor=none;fillColor=none;align=center;verticalAlign=middle;whiteSpace=wrap;rounded=0;" vertex="1" parent="1">
                    <mxGeometry x="1770" y="-385" width="60" height="30" as="geometry"/>
                </mxCell>
                <mxCell id="90" value="Set Color" style="text;html=1;strokeColor=none;fillColor=none;align=center;verticalAlign=middle;whiteSpace=wrap;rounded=0;" vertex="1" parent="1">
                    <mxGeometry x="1840" y="-385" width="60" height="30" as="geometry"/>
                </mxCell>
                <mxCell id="100" value="/event" style="rounded=0;whiteSpace=wrap;html=1;" vertex="1" parent="1">
                    <mxGeometry x="1440" y="-300" width="120" height="60" as="geometry"/>
                </mxCell>
                <mxCell id="102" value="Create Event" style="text;html=1;strokeColor=none;fillColor=none;align=center;verticalAlign=middle;whiteSpace=wrap;rounded=0;" vertex="1" parent="1">
                    <mxGeometry x="1590" y="-285" width="60" height="30" as="geometry"/>
                </mxCell>
                <mxCell id="103" value="Update Event" style="text;html=1;strokeColor=none;fillColor=none;align=center;verticalAlign=middle;whiteSpace=wrap;rounded=0;" vertex="1" parent="1">
                    <mxGeometry x="1670" y="-285" width="60" height="30" as="geometry"/>
                </mxCell>
                <mxCell id="104" value="Set Calendar" style="text;html=1;strokeColor=none;fillColor=none;align=center;verticalAlign=middle;whiteSpace=wrap;rounded=0;" vertex="1" parent="1">
                    <mxGeometry x="1830" y="-285" width="60" height="30" as="geometry"/>
                </mxCell>
                <mxCell id="105" value="Delete&lt;br&gt;Event" style="text;html=1;strokeColor=none;fillColor=none;align=center;verticalAlign=middle;whiteSpace=wrap;rounded=0;" vertex="1" parent="1">
                    <mxGeometry x="1750" y="-285" width="60" height="30" as="geometry"/>
                </mxCell>
                <mxCell id="112" value="/serialEvent" style="rounded=0;whiteSpace=wrap;html=1;" vertex="1" parent="1">
                    <mxGeometry x="1440" y="-195" width="120" height="60" as="geometry"/>
                </mxCell>
                <mxCell id="114" value="Create Event" style="text;html=1;strokeColor=none;fillColor=none;align=center;verticalAlign=middle;whiteSpace=wrap;rounded=0;" vertex="1" parent="1">
                    <mxGeometry x="1590" y="-180" width="60" height="30" as="geometry"/>
                </mxCell>
                <mxCell id="115" value="Update Event" style="text;html=1;strokeColor=none;fillColor=none;align=center;verticalAlign=middle;whiteSpace=wrap;rounded=0;" vertex="1" parent="1">
                    <mxGeometry x="1670" y="-180" width="60" height="30" as="geometry"/>
                </mxCell>
                <mxCell id="117" value="Delete&lt;br&gt;Event" style="text;html=1;strokeColor=none;fillColor=none;align=center;verticalAlign=middle;whiteSpace=wrap;rounded=0;" vertex="1" parent="1">
                    <mxGeometry x="1750" y="-180" width="60" height="30" as="geometry"/>
                </mxCell>
                <mxCell id="118" value="Get SE" style="text;html=1;strokeColor=none;fillColor=none;align=center;verticalAlign=middle;whiteSpace=wrap;rounded=0;" vertex="1" parent="1">
                    <mxGeometry x="1830" y="-180" width="60" height="30" as="geometry"/>
                </mxCell>
                <mxCell id="119" value="Get Event" style="text;html=1;strokeColor=none;fillColor=none;align=center;verticalAlign=middle;whiteSpace=wrap;rounded=0;" vertex="1" parent="1">
                    <mxGeometry x="1910" y="-285" width="60" height="30" as="geometry"/>
                </mxCell>
                <mxCell id="120" value="Get all Events from Callendar" style="text;html=1;strokeColor=none;fillColor=none;align=center;verticalAlign=middle;whiteSpace=wrap;rounded=0;" vertex="1" parent="1">
                    <mxGeometry x="1990" y="-285" width="60" height="30" as="geometry"/>
                </mxCell>
                <mxCell id="121" value="Get all Events from User" style="text;html=1;strokeColor=none;fillColor=none;align=center;verticalAlign=middle;whiteSpace=wrap;rounded=0;" vertex="1" parent="1">
                    <mxGeometry x="2070" y="-285" width="60" height="30" as="geometry"/>
                </mxCell>
                <mxCell id="122" value="Get all Events in Timespan" style="text;html=1;strokeColor=none;fillColor=none;align=center;verticalAlign=middle;whiteSpace=wrap;rounded=0;" vertex="1" parent="1">
                    <mxGeometry x="2150" y="-285" width="60" height="30" as="geometry"/>
                </mxCell>
            </root>
        </mxGraphModel>
    </diagram>
</mxfile>